<mxfile host="app.diagrams.net" modified="2021-11-02T07:14:39.905Z" agent="5.0 (Windows NT 10.0; Win64; x64) AppleWebKit/537.36 (KHTML, like Gecko) Chrome/92.0.4515.159 Safari/537.36" etag="CzInvmEFSKAY1mv0O55X" version="15.6.5" type="github">
  <diagram id="LLoMH420dzRqV7edksjr" name="Page-1">
    <mxGraphModel dx="716" dy="377" grid="1" gridSize="10" guides="1" tooltips="1" connect="1" arrows="1" fold="1" page="1" pageScale="1" pageWidth="2336" pageHeight="1654" math="1" shadow="0">
      <root>
        <mxCell id="0" />
        <mxCell id="1" parent="0" />
        <mxCell id="7nq3bFRQU4ekV5BbCSGI-3" value="" style="points=[[0.25,0,0],[0.5,0,0],[0.75,0,0],[1,0.25,0],[1,0.5,0],[1,0.75,0],[0.75,1,0],[0.5,1,0],[0.25,1,0],[0,0.75,0],[0,0.5,0],[0,0.25,0]];shape=mxgraph.bpmn.task;arcSize=10;taskMarker=abstract;outline=none;symbol=general;bpmnShapeType=subprocess;isLoopSub=0;verticalAlign=top;align=left;spacingLeft=5;strokeColor=#8D2FCC;strokeWidth=2;fillColor=#FFFFFF;fontColor=default;" vertex="1" parent="1">
          <mxGeometry x="1510" y="917.5" width="160" height="301" as="geometry" />
        </mxCell>
        <mxCell id="7nq3bFRQU4ekV5BbCSGI-4" value="" style="points=[[0.25,0,0],[0.5,0,0],[0.75,0,0],[1,0.25,0],[1,0.5,0],[1,0.75,0],[0.75,1,0],[0.5,1,0],[0.25,1,0],[0,0.75,0],[0,0.5,0],[0,0.25,0]];shape=mxgraph.bpmn.task;arcSize=10;taskMarker=abstract;outline=none;symbol=general;bpmnShapeType=subprocess;isLoopSub=0;verticalAlign=top;align=left;spacingLeft=5;strokeColor=#29CC70;strokeWidth=2;fillColor=#FFFFFF;fontColor=default;" vertex="1" parent="1">
          <mxGeometry x="1720" y="325.53999999999996" width="823" height="470" as="geometry" />
        </mxCell>
        <mxCell id="7nq3bFRQU4ekV5BbCSGI-5" value="" style="points=[[0.25,0,0],[0.5,0,0],[0.75,0,0],[1,0.25,0],[1,0.5,0],[1,0.75,0],[0.75,1,0],[0.5,1,0],[0.25,1,0],[0,0.75,0],[0,0.5,0],[0,0.25,0]];shape=mxgraph.bpmn.task;arcSize=10;taskMarker=abstract;outline=none;symbol=general;bpmnShapeType=subprocess;isLoopSub=0;verticalAlign=top;align=left;spacingLeft=5;fillColor=#FFFFFF;strokeColor=#1930FF;strokeWidth=2;fontColor=default;" vertex="1" parent="1">
          <mxGeometry x="1700" y="909.5" width="525" height="430" as="geometry" />
        </mxCell>
        <mxCell id="7nq3bFRQU4ekV5BbCSGI-6" value="" style="points=[[0.25,0,0],[0.5,0,0],[0.75,0,0],[1,0.25,0],[1,0.5,0],[1,0.75,0],[0.75,1,0],[0.5,1,0],[0.25,1,0],[0,0.75,0],[0,0.5,0],[0,0.25,0]];shape=mxgraph.bpmn.task;arcSize=10;taskMarker=abstract;outline=none;symbol=general;bpmnShapeType=subprocess;isLoopSub=0;verticalAlign=top;align=left;spacingLeft=5;strokeColor=#FF6038;strokeWidth=2;fillColor=#FFFFFF;fontColor=default;" vertex="1" parent="1">
          <mxGeometry x="1560" y="941.75" width="70" height="258" as="geometry" />
        </mxCell>
        <mxCell id="7nq3bFRQU4ekV5BbCSGI-15" value="" style="ellipse;whiteSpace=wrap;html=1;flipH=1;fillColor=#FF553B;" vertex="1" parent="1">
          <mxGeometry x="480.0799999999999" y="970.25" width="50" height="27" as="geometry" />
        </mxCell>
        <mxCell id="7nq3bFRQU4ekV5BbCSGI-16" value="&lt;font face=&quot;Times New Roman&quot; style=&quot;font-size: 14px&quot;&gt;$$h_{1}^{&#39;}$$&lt;/font&gt;" style="text;html=1;strokeColor=none;fillColor=none;align=center;verticalAlign=middle;whiteSpace=wrap;rounded=0;flipH=1;" vertex="1" parent="1">
          <mxGeometry x="485.0799999999999" y="974.25" width="40" height="20" as="geometry" />
        </mxCell>
        <mxCell id="7nq3bFRQU4ekV5BbCSGI-17" value="" style="endArrow=classic;html=1;flipH=1;" edge="1" parent="1">
          <mxGeometry width="50" height="50" relative="1" as="geometry">
            <mxPoint x="532.0799999999996" y="984.25" as="sourcePoint" />
            <mxPoint x="558.0799999999996" y="984.25" as="targetPoint" />
          </mxGeometry>
        </mxCell>
        <mxCell id="7nq3bFRQU4ekV5BbCSGI-18" value="&lt;font face=&quot;Times New Roman&quot; style=&quot;font-size: 16px&quot;&gt;&lt;b&gt;FC&lt;/b&gt;&lt;/font&gt;" style="rounded=1;whiteSpace=wrap;html=1;flipH=1;fillColor=#FFE605;" vertex="1" parent="1">
          <mxGeometry x="334.08000000000004" y="1084.75" width="59" height="30" as="geometry" />
        </mxCell>
        <mxCell id="7nq3bFRQU4ekV5BbCSGI-19" value="" style="rounded=0;whiteSpace=wrap;html=1;flipH=1;fillColor=#FFF826;" vertex="1" parent="1">
          <mxGeometry x="259.58000000000004" y="1062.5" width="30" height="80" as="geometry" />
        </mxCell>
        <mxCell id="7nq3bFRQU4ekV5BbCSGI-27" value="" style="rounded=0;whiteSpace=wrap;html=1;fillColor=#009900;" vertex="1" parent="1">
          <mxGeometry x="147.26" y="522.79" width="60" height="10" as="geometry" />
        </mxCell>
        <mxCell id="7nq3bFRQU4ekV5BbCSGI-28" value="" style="rounded=0;whiteSpace=wrap;html=1;fillColor=#009900;" vertex="1" parent="1">
          <mxGeometry x="139.26" y="528.79" width="60" height="10" as="geometry" />
        </mxCell>
        <mxCell id="7nq3bFRQU4ekV5BbCSGI-29" value="" style="rounded=0;whiteSpace=wrap;html=1;fillColor=#009900;" vertex="1" parent="1">
          <mxGeometry x="130.26" y="534.79" width="60" height="10" as="geometry" />
        </mxCell>
        <mxCell id="7nq3bFRQU4ekV5BbCSGI-30" value="" style="rounded=0;whiteSpace=wrap;html=1;fillColor=#009900;" vertex="1" parent="1">
          <mxGeometry x="122.25999999999999" y="539.79" width="60" height="10" as="geometry" />
        </mxCell>
        <mxCell id="7nq3bFRQU4ekV5BbCSGI-31" value="" style="rounded=0;whiteSpace=wrap;html=1;fillColor=#009900;" vertex="1" parent="1">
          <mxGeometry x="162.26" y="496.78999999999996" width="60" height="10" as="geometry" />
        </mxCell>
        <mxCell id="7nq3bFRQU4ekV5BbCSGI-32" value="&lt;b&gt;&lt;font style=&quot;font-size: 18px&quot; face=&quot;Times New Roman&quot;&gt;...&lt;/font&gt;&lt;/b&gt;" style="text;html=1;strokeColor=none;fillColor=none;align=center;verticalAlign=middle;whiteSpace=wrap;rounded=0;rotation=-45;" vertex="1" parent="1">
          <mxGeometry x="162.26" y="500.78999999999996" width="40" height="20" as="geometry" />
        </mxCell>
        <mxCell id="7nq3bFRQU4ekV5BbCSGI-33" value="" style="rounded=0;whiteSpace=wrap;html=1;fillColor=#FF8000;" vertex="1" parent="1">
          <mxGeometry x="309.6" y="522.79" width="60" height="10" as="geometry" />
        </mxCell>
        <mxCell id="7nq3bFRQU4ekV5BbCSGI-34" value="" style="rounded=0;whiteSpace=wrap;html=1;fillColor=#FF8000;" vertex="1" parent="1">
          <mxGeometry x="301.6" y="528.79" width="60" height="10" as="geometry" />
        </mxCell>
        <mxCell id="7nq3bFRQU4ekV5BbCSGI-35" value="" style="rounded=0;whiteSpace=wrap;html=1;fillColor=#FF8000;" vertex="1" parent="1">
          <mxGeometry x="292.6" y="534.79" width="60" height="10" as="geometry" />
        </mxCell>
        <mxCell id="7nq3bFRQU4ekV5BbCSGI-36" value="" style="rounded=0;whiteSpace=wrap;html=1;fillColor=#FF8000;" vertex="1" parent="1">
          <mxGeometry x="284.6" y="539.79" width="60" height="10" as="geometry" />
        </mxCell>
        <mxCell id="7nq3bFRQU4ekV5BbCSGI-37" value="" style="rounded=0;whiteSpace=wrap;html=1;fillColor=#FF8000;" vertex="1" parent="1">
          <mxGeometry x="324.6" y="496.78999999999996" width="60" height="10" as="geometry" />
        </mxCell>
        <mxCell id="7nq3bFRQU4ekV5BbCSGI-38" value="&lt;b&gt;&lt;font style=&quot;font-size: 18px&quot; face=&quot;Times New Roman&quot;&gt;...&lt;/font&gt;&lt;/b&gt;" style="text;html=1;strokeColor=none;fillColor=none;align=center;verticalAlign=middle;whiteSpace=wrap;rounded=0;rotation=-45;" vertex="1" parent="1">
          <mxGeometry x="324.6" y="500.78999999999996" width="40" height="20" as="geometry" />
        </mxCell>
        <mxCell id="7nq3bFRQU4ekV5BbCSGI-39" value="" style="rounded=0;whiteSpace=wrap;html=1;fillColor=#6666FF;" vertex="1" parent="1">
          <mxGeometry x="452.0999999999999" y="522.79" width="60" height="10" as="geometry" />
        </mxCell>
        <mxCell id="7nq3bFRQU4ekV5BbCSGI-40" value="" style="rounded=0;whiteSpace=wrap;html=1;fillColor=#6666FF;" vertex="1" parent="1">
          <mxGeometry x="444.1" y="528.79" width="60" height="10" as="geometry" />
        </mxCell>
        <mxCell id="7nq3bFRQU4ekV5BbCSGI-41" value="" style="rounded=0;whiteSpace=wrap;html=1;fillColor=#6666FF;" vertex="1" parent="1">
          <mxGeometry x="435.1" y="534.79" width="60" height="10" as="geometry" />
        </mxCell>
        <mxCell id="7nq3bFRQU4ekV5BbCSGI-42" value="" style="rounded=0;whiteSpace=wrap;html=1;fillColor=#6666FF;" vertex="1" parent="1">
          <mxGeometry x="427.1" y="539.79" width="60" height="10" as="geometry" />
        </mxCell>
        <mxCell id="7nq3bFRQU4ekV5BbCSGI-43" value="" style="rounded=0;whiteSpace=wrap;html=1;fillColor=#6666FF;" vertex="1" parent="1">
          <mxGeometry x="467.0999999999999" y="496.78999999999996" width="60" height="10" as="geometry" />
        </mxCell>
        <mxCell id="7nq3bFRQU4ekV5BbCSGI-44" value="&lt;b&gt;&lt;font style=&quot;font-size: 18px&quot; face=&quot;Times New Roman&quot;&gt;...&lt;/font&gt;&lt;/b&gt;" style="text;html=1;strokeColor=none;fillColor=none;align=center;verticalAlign=middle;whiteSpace=wrap;rounded=0;rotation=-45;" vertex="1" parent="1">
          <mxGeometry x="467.0999999999999" y="500.78999999999996" width="40" height="20" as="geometry" />
        </mxCell>
        <mxCell id="7nq3bFRQU4ekV5BbCSGI-45" value="" style="endArrow=classic;html=1;strokeColor=default;labelBackgroundColor=default;fontColor=default;" edge="1" parent="1">
          <mxGeometry width="50" height="50" relative="1" as="geometry">
            <mxPoint x="231.26" y="529.29" as="sourcePoint" />
            <mxPoint x="280" y="529" as="targetPoint" />
          </mxGeometry>
        </mxCell>
        <mxCell id="7nq3bFRQU4ekV5BbCSGI-48" value="" style="ellipse;whiteSpace=wrap;html=1;flipH=1;fillColor=#FF553B;" vertex="1" parent="1">
          <mxGeometry x="480.0799999999999" y="1084.75" width="50" height="27" as="geometry" />
        </mxCell>
        <mxCell id="7nq3bFRQU4ekV5BbCSGI-49" value="" style="endArrow=classic;html=1;flipH=1;" edge="1" parent="1">
          <mxGeometry width="50" height="50" relative="1" as="geometry">
            <mxPoint x="532.0799999999996" y="1098.75" as="sourcePoint" />
            <mxPoint x="558.0799999999996" y="1098.75" as="targetPoint" />
          </mxGeometry>
        </mxCell>
        <mxCell id="7nq3bFRQU4ekV5BbCSGI-70" value="" style="ellipse;whiteSpace=wrap;html=1;flipH=1;fillColor=#FF553B;" vertex="1" parent="1">
          <mxGeometry x="480.0799999999999" y="1194.75" width="50" height="27" as="geometry" />
        </mxCell>
        <mxCell id="7nq3bFRQU4ekV5BbCSGI-71" value="&lt;font face=&quot;Times New Roman&quot; style=&quot;font-size: 14px&quot;&gt;$$h_{3}^{&#39;}$$&lt;/font&gt;" style="text;html=1;strokeColor=none;fillColor=none;align=center;verticalAlign=middle;whiteSpace=wrap;rounded=0;flipH=1;" vertex="1" parent="1">
          <mxGeometry x="485.76" y="1198.5" width="40" height="20" as="geometry" />
        </mxCell>
        <mxCell id="7nq3bFRQU4ekV5BbCSGI-72" value="" style="endArrow=classic;html=1;flipH=1;" edge="1" parent="1">
          <mxGeometry width="50" height="50" relative="1" as="geometry">
            <mxPoint x="532.0799999999996" y="1208.75" as="sourcePoint" />
            <mxPoint x="558.0799999999996" y="1208.75" as="targetPoint" />
          </mxGeometry>
        </mxCell>
        <mxCell id="7nq3bFRQU4ekV5BbCSGI-74" value="&lt;font style=&quot;font-size: 18px&quot;&gt;&lt;b&gt;...&lt;/b&gt;&lt;/font&gt;" style="text;html=1;strokeColor=none;fillColor=none;align=center;verticalAlign=middle;whiteSpace=wrap;rounded=0;" vertex="1" parent="1">
          <mxGeometry x="1188.25" y="959.21" width="40" height="20" as="geometry" />
        </mxCell>
        <mxCell id="7nq3bFRQU4ekV5BbCSGI-75" value="" style="rounded=0;whiteSpace=wrap;html=1;flipH=1;fillColor=#FFC847;" vertex="1" parent="1">
          <mxGeometry x="1294" y="966.46" width="60" height="10" as="geometry" />
        </mxCell>
        <mxCell id="7nq3bFRQU4ekV5BbCSGI-76" value="" style="rounded=0;whiteSpace=wrap;html=1;flipH=1;fillColor=#FFC847;" vertex="1" parent="1">
          <mxGeometry x="1286" y="972.46" width="60" height="10" as="geometry" />
        </mxCell>
        <mxCell id="7nq3bFRQU4ekV5BbCSGI-77" value="" style="rounded=0;whiteSpace=wrap;html=1;flipH=1;fillColor=#FFC847;" vertex="1" parent="1">
          <mxGeometry x="1277" y="978.46" width="60" height="10" as="geometry" />
        </mxCell>
        <mxCell id="7nq3bFRQU4ekV5BbCSGI-78" value="" style="rounded=0;whiteSpace=wrap;html=1;flipH=1;fillColor=#FFC847;" vertex="1" parent="1">
          <mxGeometry x="1269" y="983.46" width="60" height="10" as="geometry" />
        </mxCell>
        <mxCell id="7nq3bFRQU4ekV5BbCSGI-79" value="" style="rounded=0;whiteSpace=wrap;html=1;flipH=1;fillColor=#FFC847;" vertex="1" parent="1">
          <mxGeometry x="1309" y="940.46" width="60" height="10" as="geometry" />
        </mxCell>
        <mxCell id="7nq3bFRQU4ekV5BbCSGI-80" value="&lt;b&gt;&lt;font style=&quot;font-size: 18px&quot; face=&quot;Times New Roman&quot;&gt;...&lt;/font&gt;&lt;/b&gt;" style="text;html=1;strokeColor=none;fillColor=none;align=center;verticalAlign=middle;whiteSpace=wrap;rounded=0;rotation=-45;flipH=1;" vertex="1" parent="1">
          <mxGeometry x="1309" y="944.46" width="40" height="20" as="geometry" />
        </mxCell>
        <mxCell id="7nq3bFRQU4ekV5BbCSGI-81" value="" style="endArrow=classic;html=1;flipH=1;" edge="1" parent="1">
          <mxGeometry width="50" height="50" relative="1" as="geometry">
            <mxPoint x="290.58000000000027" y="1100.1599999999999" as="sourcePoint" />
            <mxPoint x="330.58000000000027" y="1100.1599999999999" as="targetPoint" />
          </mxGeometry>
        </mxCell>
        <mxCell id="7nq3bFRQU4ekV5BbCSGI-82" value="" style="line;strokeWidth=1;html=1;flipH=1;" vertex="1" parent="1">
          <mxGeometry x="439.0799999999999" y="1205.42" width="40" height="5" as="geometry" />
        </mxCell>
        <mxCell id="7nq3bFRQU4ekV5BbCSGI-83" value="" style="line;strokeWidth=1;html=1;flipH=1;" vertex="1" parent="1">
          <mxGeometry x="439.0799999999999" y="981.75" width="40" height="5" as="geometry" />
        </mxCell>
        <mxCell id="7nq3bFRQU4ekV5BbCSGI-84" value="&lt;font style=&quot;font-size: 16px&quot; face=&quot;Times New Roman&quot;&gt;&lt;b&gt;Softmax&lt;/b&gt;&lt;/font&gt;" style="text;html=1;strokeColor=none;fillColor=none;align=center;verticalAlign=middle;whiteSpace=wrap;rounded=0;rotation=90;flipH=1;" vertex="1" parent="1">
          <mxGeometry x="257.58000000000004" y="1092.5" width="40" height="20" as="geometry" />
        </mxCell>
        <mxCell id="7nq3bFRQU4ekV5BbCSGI-86" value="" style="endArrow=classic;html=1;flipH=1;" edge="1" parent="1">
          <mxGeometry width="50" height="50" relative="1" as="geometry">
            <mxPoint x="504.5799999999996" y="1113.75" as="sourcePoint" />
            <mxPoint x="504.5799999999996" y="1193.75" as="targetPoint" />
          </mxGeometry>
        </mxCell>
        <mxCell id="7nq3bFRQU4ekV5BbCSGI-87" value="" style="endArrow=classic;html=1;flipH=1;strokeColor=default;fontColor=default;labelBackgroundColor=default;exitX=0.5;exitY=1;exitDx=0;exitDy=0;" edge="1" parent="1" source="7nq3bFRQU4ekV5BbCSGI-251">
          <mxGeometry width="50" height="50" relative="1" as="geometry">
            <mxPoint x="921.3699999999995" y="529.0600000000001" as="sourcePoint" />
            <mxPoint x="921.74" y="514.2700000000001" as="targetPoint" />
          </mxGeometry>
        </mxCell>
        <mxCell id="7nq3bFRQU4ekV5BbCSGI-88" value="" style="endArrow=none;html=1;" edge="1" parent="1">
          <mxGeometry width="50" height="50" relative="1" as="geometry">
            <mxPoint x="438.98999999999944" y="1207.5" as="sourcePoint" />
            <mxPoint x="438.8999999999993" y="983.5" as="targetPoint" />
          </mxGeometry>
        </mxCell>
        <mxCell id="7nq3bFRQU4ekV5BbCSGI-90" value="" style="endArrow=none;html=1;" edge="1" parent="1">
          <mxGeometry width="50" height="50" relative="1" as="geometry">
            <mxPoint x="1378.5000000000002" y="973.9199999999996" as="sourcePoint" />
            <mxPoint x="1418.5000000000002" y="973.9199999999996" as="targetPoint" />
          </mxGeometry>
        </mxCell>
        <mxCell id="7nq3bFRQU4ekV5BbCSGI-91" value="" style="endArrow=none;html=1;" edge="1" parent="1">
          <mxGeometry width="50" height="50" relative="1" as="geometry">
            <mxPoint x="674.0100000000001" y="1100.9499999999998" as="sourcePoint" />
            <mxPoint x="784.0100000000001" y="1100.9499999999998" as="targetPoint" />
          </mxGeometry>
        </mxCell>
        <mxCell id="7nq3bFRQU4ekV5BbCSGI-92" value="" style="endArrow=none;html=1;" edge="1" parent="1">
          <mxGeometry width="50" height="50" relative="1" as="geometry">
            <mxPoint x="673.8299999999998" y="1211.04" as="sourcePoint" />
            <mxPoint x="673.8299999999998" y="981.04" as="targetPoint" />
          </mxGeometry>
        </mxCell>
        <mxCell id="7nq3bFRQU4ekV5BbCSGI-93" value="" style="endArrow=classic;html=1;" edge="1" parent="1">
          <mxGeometry width="50" height="50" relative="1" as="geometry">
            <mxPoint x="673.8299999999998" y="981.04" as="sourcePoint" />
            <mxPoint x="623.8299999999998" y="981.04" as="targetPoint" />
          </mxGeometry>
        </mxCell>
        <mxCell id="7nq3bFRQU4ekV5BbCSGI-94" value="" style="endArrow=classic;html=1;" edge="1" parent="1">
          <mxGeometry width="50" height="50" relative="1" as="geometry">
            <mxPoint x="673.8299999999998" y="1101.1099999999997" as="sourcePoint" />
            <mxPoint x="623.8299999999998" y="1101.1099999999997" as="targetPoint" />
          </mxGeometry>
        </mxCell>
        <mxCell id="7nq3bFRQU4ekV5BbCSGI-95" value="" style="endArrow=classic;html=1;" edge="1" parent="1">
          <mxGeometry width="50" height="50" relative="1" as="geometry">
            <mxPoint x="673.8299999999998" y="1210.2799999999997" as="sourcePoint" />
            <mxPoint x="623.8299999999998" y="1210.2799999999997" as="targetPoint" />
          </mxGeometry>
        </mxCell>
        <mxCell id="7nq3bFRQU4ekV5BbCSGI-96" value="" style="endArrow=classic;html=1;strokeColor=default;labelBackgroundColor=default;fontColor=default;" edge="1" parent="1">
          <mxGeometry width="50" height="50" relative="1" as="geometry">
            <mxPoint x="387.10000000000036" y="529.29" as="sourcePoint" />
            <mxPoint x="427.09999999999945" y="529.29" as="targetPoint" />
          </mxGeometry>
        </mxCell>
        <mxCell id="7nq3bFRQU4ekV5BbCSGI-100" value="" style="rounded=0;whiteSpace=wrap;html=1;fillColor=#007FFF;" vertex="1" parent="1">
          <mxGeometry x="610.9200000000001" y="368.58" width="36" height="23" as="geometry" />
        </mxCell>
        <mxCell id="7nq3bFRQU4ekV5BbCSGI-101" value="&lt;font face=&quot;Times New Roman&quot; style=&quot;font-size: 14px&quot;&gt;$$GAP$$&lt;/font&gt;" style="text;html=1;strokeColor=none;fillColor=none;align=center;verticalAlign=middle;whiteSpace=wrap;rounded=0;" vertex="1" parent="1">
          <mxGeometry x="609.9200000000001" y="368.58" width="40" height="20" as="geometry" />
        </mxCell>
        <mxCell id="7nq3bFRQU4ekV5BbCSGI-102" value="" style="rounded=0;whiteSpace=wrap;html=1;fillColor=#007FFF;" vertex="1" parent="1">
          <mxGeometry x="610.9200000000001" y="423.58" width="36" height="23" as="geometry" />
        </mxCell>
        <mxCell id="7nq3bFRQU4ekV5BbCSGI-103" value="&lt;font face=&quot;Times New Roman&quot; style=&quot;font-size: 16px&quot;&gt;FC&lt;/font&gt;" style="text;html=1;strokeColor=none;fillColor=none;align=center;verticalAlign=middle;whiteSpace=wrap;rounded=0;fontSize=16;" vertex="1" parent="1">
          <mxGeometry x="608.9200000000001" y="424.58" width="40" height="20" as="geometry" />
        </mxCell>
        <mxCell id="7nq3bFRQU4ekV5BbCSGI-104" value="" style="rounded=0;whiteSpace=wrap;html=1;fillColor=#007FFF;" vertex="1" parent="1">
          <mxGeometry x="608.4200000000001" y="479.08" width="45" height="23" as="geometry" />
        </mxCell>
        <mxCell id="7nq3bFRQU4ekV5BbCSGI-105" value="&lt;font face=&quot;Times New Roman&quot; style=&quot;font-size: 16px&quot;&gt;ReLU&lt;/font&gt;" style="text;html=1;strokeColor=none;fillColor=none;align=center;verticalAlign=middle;whiteSpace=wrap;rounded=0;fontSize=16;" vertex="1" parent="1">
          <mxGeometry x="611.0800000000002" y="480.08" width="40" height="20" as="geometry" />
        </mxCell>
        <mxCell id="7nq3bFRQU4ekV5BbCSGI-106" value="" style="rounded=0;whiteSpace=wrap;html=1;fillColor=#007FFF;" vertex="1" parent="1">
          <mxGeometry x="611.9200000000001" y="533.5799999999999" width="36" height="23" as="geometry" />
        </mxCell>
        <mxCell id="7nq3bFRQU4ekV5BbCSGI-107" value="&lt;font face=&quot;Times New Roman&quot; style=&quot;font-size: 16px&quot;&gt;FC&lt;/font&gt;" style="text;html=1;strokeColor=none;fillColor=none;align=center;verticalAlign=middle;whiteSpace=wrap;rounded=0;fontSize=16;" vertex="1" parent="1">
          <mxGeometry x="609.74" y="534.5799999999999" width="40" height="20" as="geometry" />
        </mxCell>
        <mxCell id="7nq3bFRQU4ekV5BbCSGI-111" value="" style="endArrow=classic;html=1;" edge="1" parent="1">
          <mxGeometry width="50" height="50" relative="1" as="geometry">
            <mxPoint x="629.4199999999998" y="391.58" as="sourcePoint" />
            <mxPoint x="629.4199999999998" y="421.58" as="targetPoint" />
          </mxGeometry>
        </mxCell>
        <mxCell id="7nq3bFRQU4ekV5BbCSGI-112" value="" style="endArrow=classic;html=1;" edge="1" parent="1">
          <mxGeometry width="50" height="50" relative="1" as="geometry">
            <mxPoint x="629.4199999999998" y="501.08" as="sourcePoint" />
            <mxPoint x="629.4199999999998" y="531.0799999999999" as="targetPoint" />
          </mxGeometry>
        </mxCell>
        <mxCell id="7nq3bFRQU4ekV5BbCSGI-113" value="" style="endArrow=classic;html=1;" edge="1" parent="1">
          <mxGeometry width="50" height="50" relative="1" as="geometry">
            <mxPoint x="629.4199999999998" y="556.5799999999999" as="sourcePoint" />
            <mxPoint x="629.4199999999998" y="586.5799999999999" as="targetPoint" />
          </mxGeometry>
        </mxCell>
        <mxCell id="7nq3bFRQU4ekV5BbCSGI-116" value="" style="endArrow=classic;html=1;strokeColor=default;labelBackgroundColor=default;fontColor=default;" edge="1" parent="1">
          <mxGeometry width="50" height="50" relative="1" as="geometry">
            <mxPoint x="836.5000000000002" y="242.99999999999994" as="sourcePoint" />
            <mxPoint x="886.5000000000002" y="242.99999999999994" as="targetPoint" />
          </mxGeometry>
        </mxCell>
        <mxCell id="7nq3bFRQU4ekV5BbCSGI-117" value="" style="rounded=0;whiteSpace=wrap;html=1;fillColor=#007FFF;" vertex="1" parent="1">
          <mxGeometry x="600.9200000000001" y="587.0799999999999" width="60" height="23" as="geometry" />
        </mxCell>
        <mxCell id="7nq3bFRQU4ekV5BbCSGI-118" value="" style="endArrow=classic;html=1;" edge="1" parent="1">
          <mxGeometry width="50" height="50" relative="1" as="geometry">
            <mxPoint x="629.4499999999998" y="610.0799999999999" as="sourcePoint" />
            <mxPoint x="629.4499999999998" y="640.0799999999999" as="targetPoint" />
          </mxGeometry>
        </mxCell>
        <mxCell id="7nq3bFRQU4ekV5BbCSGI-122" value="&lt;font face=&quot;Times New Roman&quot; style=&quot;font-size: 16px&quot;&gt;Sigmoid&lt;/font&gt;" style="text;html=1;strokeColor=none;fillColor=none;align=center;verticalAlign=middle;whiteSpace=wrap;rounded=0;fontSize=16;" vertex="1" parent="1">
          <mxGeometry x="610.4200000000001" y="588.0799999999999" width="40" height="20" as="geometry" />
        </mxCell>
        <mxCell id="7nq3bFRQU4ekV5BbCSGI-124" value="" style="endArrow=classic;html=1;" edge="1" parent="1">
          <mxGeometry width="50" height="50" relative="1" as="geometry">
            <mxPoint x="630.3300000000002" y="666.0799999999999" as="sourcePoint" />
            <mxPoint x="630.3300000000002" y="696.0799999999999" as="targetPoint" />
          </mxGeometry>
        </mxCell>
        <mxCell id="7nq3bFRQU4ekV5BbCSGI-129" value="" style="endArrow=classic;html=1;" edge="1" parent="1">
          <mxGeometry width="50" height="50" relative="1" as="geometry">
            <mxPoint x="1150" y="974.3699999999999" as="sourcePoint" />
            <mxPoint x="1190" y="974.3699999999999" as="targetPoint" />
          </mxGeometry>
        </mxCell>
        <mxCell id="7nq3bFRQU4ekV5BbCSGI-132" value="" style="endArrow=classic;html=1;" edge="1" parent="1">
          <mxGeometry width="50" height="50" relative="1" as="geometry">
            <mxPoint x="253.76000000000008" y="1100.1599999999999" as="sourcePoint" />
            <mxPoint x="203.76000000000008" y="1100.1599999999999" as="targetPoint" />
          </mxGeometry>
        </mxCell>
        <mxCell id="7nq3bFRQU4ekV5BbCSGI-133" value="" style="rounded=0;whiteSpace=wrap;html=1;fillColor=#66B2FF;" vertex="1" parent="1">
          <mxGeometry x="122.26000000000002" y="1034.5" width="72" height="136" as="geometry" />
        </mxCell>
        <mxCell id="7nq3bFRQU4ekV5BbCSGI-134" value="&lt;font face=&quot;Times New Roman&quot; style=&quot;font-size: 14px&quot;&gt;&lt;b&gt;Interictal&lt;/b&gt;&lt;/font&gt;" style="text;html=1;strokeColor=none;fillColor=none;align=center;verticalAlign=middle;whiteSpace=wrap;rounded=0;" vertex="1" parent="1">
          <mxGeometry x="138.76000000000002" y="1046" width="40" height="20" as="geometry" />
        </mxCell>
        <mxCell id="7nq3bFRQU4ekV5BbCSGI-135" value="&lt;font face=&quot;Times New Roman&quot; style=&quot;font-size: 14px&quot;&gt;&lt;b&gt;Sezuire&lt;/b&gt;&lt;/font&gt;" style="text;html=1;strokeColor=none;fillColor=none;align=center;verticalAlign=middle;whiteSpace=wrap;rounded=0;" vertex="1" parent="1">
          <mxGeometry x="138.76000000000002" y="1142.5" width="40" height="20" as="geometry" />
        </mxCell>
        <mxCell id="7nq3bFRQU4ekV5BbCSGI-136" value="&lt;font face=&quot;Times New Roman&quot; style=&quot;font-size: 14px&quot;&gt;&lt;b&gt;Pre&lt;/b&gt;&lt;/font&gt;" style="text;html=1;strokeColor=none;fillColor=none;align=center;verticalAlign=middle;whiteSpace=wrap;rounded=0;" vertex="1" parent="1">
          <mxGeometry x="138.26000000000002" y="1092.5" width="40" height="20" as="geometry" />
        </mxCell>
        <mxCell id="7nq3bFRQU4ekV5BbCSGI-137" value="&lt;font style=&quot;font-size: 18px&quot;&gt;&lt;b&gt;...&lt;/b&gt;&lt;/font&gt;" style="text;html=1;strokeColor=none;fillColor=none;align=center;verticalAlign=middle;whiteSpace=wrap;rounded=0;" vertex="1" parent="1">
          <mxGeometry x="138.76000000000002" y="1065" width="40" height="20" as="geometry" />
        </mxCell>
        <mxCell id="7nq3bFRQU4ekV5BbCSGI-138" value="&lt;font style=&quot;font-size: 18px&quot;&gt;&lt;b&gt;...&lt;/b&gt;&lt;/font&gt;" style="text;html=1;strokeColor=none;fillColor=none;align=center;verticalAlign=middle;whiteSpace=wrap;rounded=0;" vertex="1" parent="1">
          <mxGeometry x="138.26000000000002" y="1114.5" width="40" height="20" as="geometry" />
        </mxCell>
        <mxCell id="7nq3bFRQU4ekV5BbCSGI-143" value="&lt;font face=&quot;Times New Roman&quot; style=&quot;font-size: 14px&quot;&gt;$$h_{2}^{&#39;}$$&lt;/font&gt;" style="text;html=1;strokeColor=none;fillColor=none;align=center;verticalAlign=middle;whiteSpace=wrap;rounded=0;flipH=1;" vertex="1" parent="1">
          <mxGeometry x="484.76" y="1088.25" width="40" height="20" as="geometry" />
        </mxCell>
        <mxCell id="7nq3bFRQU4ekV5BbCSGI-150" value="&lt;b&gt;&lt;font style=&quot;font-size: 14px&quot; face=&quot;Times New Roman&quot;&gt;Conv&lt;/font&gt;&lt;/b&gt;" style="text;html=1;strokeColor=none;fillColor=none;align=center;verticalAlign=middle;whiteSpace=wrap;rounded=0;" vertex="1" parent="1">
          <mxGeometry x="153.6" y="554.48" width="40" height="20" as="geometry" />
        </mxCell>
        <mxCell id="7nq3bFRQU4ekV5BbCSGI-152" value="" style="endArrow=classic;html=1;flipH=1;" edge="1" parent="1">
          <mxGeometry width="50" height="50" relative="1" as="geometry">
            <mxPoint x="504.7599999999999" y="1001.5" as="sourcePoint" />
            <mxPoint x="504.7599999999999" y="1081.5" as="targetPoint" />
          </mxGeometry>
        </mxCell>
        <mxCell id="7nq3bFRQU4ekV5BbCSGI-153" value="&lt;b&gt;&lt;font face=&quot;Times New Roman&quot; style=&quot;font-size: 14px&quot;&gt;Conv&lt;/font&gt;&lt;/b&gt;" style="text;html=1;strokeColor=none;fillColor=none;align=center;verticalAlign=middle;whiteSpace=wrap;rounded=0;" vertex="1" parent="1">
          <mxGeometry x="303.1" y="556.04" width="40" height="20" as="geometry" />
        </mxCell>
        <mxCell id="7nq3bFRQU4ekV5BbCSGI-154" value="&lt;b&gt;&lt;font style=&quot;font-size: 14px&quot; face=&quot;Times New Roman&quot;&gt;Conv&lt;/font&gt;&lt;/b&gt;" style="text;html=1;strokeColor=none;fillColor=none;align=center;verticalAlign=middle;whiteSpace=wrap;rounded=0;" vertex="1" parent="1">
          <mxGeometry x="442.1" y="555.79" width="40" height="20" as="geometry" />
        </mxCell>
        <mxCell id="7nq3bFRQU4ekV5BbCSGI-157" value="&lt;b&gt;&lt;font face=&quot;Times New Roman&quot; style=&quot;font-size: 14px&quot;&gt;Pooling&lt;/font&gt;&lt;/b&gt;" style="text;html=1;strokeColor=none;fillColor=none;align=center;verticalAlign=middle;whiteSpace=wrap;rounded=0;" vertex="1" parent="1">
          <mxGeometry x="1296.68" y="998.96" width="40" height="20" as="geometry" />
        </mxCell>
        <mxCell id="7nq3bFRQU4ekV5BbCSGI-158" value="&lt;font face=&quot;Times New Roman&quot; style=&quot;font-size: 14px&quot;&gt;$$U_{t}$$&lt;/font&gt;" style="text;html=1;strokeColor=default;fillColor=none;align=center;verticalAlign=middle;whiteSpace=wrap;rounded=0;labelBackgroundColor=default;fontColor=default;" vertex="1" parent="1">
          <mxGeometry x="841" y="221.99999999999994" width="40" height="20" as="geometry" />
        </mxCell>
        <mxCell id="7nq3bFRQU4ekV5BbCSGI-159" value="&lt;font face=&quot;Times New Roman&quot; style=&quot;font-size: 14px&quot;&gt;$$S_t$$&lt;/font&gt;" style="text;html=1;strokeColor=default;fillColor=none;align=center;verticalAlign=middle;whiteSpace=wrap;rounded=0;fontColor=default;labelBackgroundColor=default;" vertex="1" parent="1">
          <mxGeometry x="986.5" y="225.99999999999994" width="40" height="20" as="geometry" />
        </mxCell>
        <mxCell id="7nq3bFRQU4ekV5BbCSGI-162" value="&lt;font face=&quot;Times New Roman&quot; style=&quot;font-size: 14px&quot;&gt;$$X_i$$&lt;/font&gt;" style="text;html=1;strokeColor=none;fillColor=none;align=center;verticalAlign=middle;whiteSpace=wrap;rounded=0;" vertex="1" parent="1">
          <mxGeometry x="238.26" y="500.78999999999996" width="40" height="20" as="geometry" />
        </mxCell>
        <mxCell id="7nq3bFRQU4ekV5BbCSGI-164" value="&lt;font face=&quot;Times New Roman&quot; style=&quot;font-size: 14px&quot;&gt;$$\tilde{X_t}$$&lt;/font&gt;" style="text;html=1;strokeColor=none;fillColor=none;align=center;verticalAlign=middle;whiteSpace=wrap;rounded=0;" vertex="1" parent="1">
          <mxGeometry x="628.74" y="666.0799999999999" width="40" height="20" as="geometry" />
        </mxCell>
        <mxCell id="7nq3bFRQU4ekV5BbCSGI-167" value="&lt;span style=&quot;font-family: &amp;#34;times new roman&amp;#34; ; font-size: 14px&quot;&gt;$$X_{3}^{&#39;}$$&lt;/span&gt;" style="text;html=1;strokeColor=none;fillColor=none;align=center;verticalAlign=middle;whiteSpace=wrap;rounded=0;" vertex="1" parent="1">
          <mxGeometry x="1150" y="950.96" width="40" height="20" as="geometry" />
        </mxCell>
        <mxCell id="7nq3bFRQU4ekV5BbCSGI-168" value="" style="endArrow=classic;html=1;" edge="1" parent="1">
          <mxGeometry width="50" height="50" relative="1" as="geometry">
            <mxPoint x="629.4199999999998" y="447.58" as="sourcePoint" />
            <mxPoint x="629.4199999999998" y="477.58" as="targetPoint" />
          </mxGeometry>
        </mxCell>
        <mxCell id="7nq3bFRQU4ekV5BbCSGI-169" value="&lt;font style=&quot;font-size: 16px&quot; face=&quot;Times New Roman&quot;&gt;Residual Block&lt;/font&gt;" style="text;html=1;strokeColor=default;fillColor=none;align=center;verticalAlign=middle;whiteSpace=wrap;rounded=0;labelBackgroundColor=default;fontColor=default;" vertex="1" parent="1">
          <mxGeometry x="1087.57" y="201.99999999999997" width="145" height="20" as="geometry" />
        </mxCell>
        <mxCell id="7nq3bFRQU4ekV5BbCSGI-170" value="&lt;font face=&quot;Times New Roman&quot; style=&quot;font-size: 16px&quot;&gt;$$\times8$$&lt;/font&gt;" style="text;html=1;strokeColor=none;fillColor=none;align=center;verticalAlign=middle;whiteSpace=wrap;rounded=0;" vertex="1" parent="1">
          <mxGeometry x="1279" y="850" width="40" height="20" as="geometry" />
        </mxCell>
        <mxCell id="7nq3bFRQU4ekV5BbCSGI-171" value="&lt;font style=&quot;font-size: 16px&quot; face=&quot;Times New Roman&quot;&gt;SE Block&lt;/font&gt;" style="text;html=1;strokeColor=default;fillColor=none;align=center;verticalAlign=middle;whiteSpace=wrap;rounded=0;labelBackgroundColor=default;fontColor=default;" vertex="1" parent="1">
          <mxGeometry x="923.5" y="181.99999999999994" width="145" height="20" as="geometry" />
        </mxCell>
        <mxCell id="7nq3bFRQU4ekV5BbCSGI-172" value="&lt;b&gt;&lt;font face=&quot;Times New Roman&quot; style=&quot;font-size: 16px&quot;&gt;Spatial feature extraction module&lt;/font&gt;&lt;/b&gt;" style="text;html=1;strokeColor=default;fillColor=none;align=center;verticalAlign=middle;whiteSpace=wrap;rounded=0;fontSize=16;labelBackgroundColor=default;fontColor=default;" vertex="1" parent="1">
          <mxGeometry x="1068" y="165.99999999999997" width="247.5" height="20" as="geometry" />
        </mxCell>
        <mxCell id="7nq3bFRQU4ekV5BbCSGI-173" value="&lt;b&gt;&lt;font style=&quot;font-size: 16px&quot; face=&quot;Times New Roman&quot;&gt;Temporal feature extraction module&lt;/font&gt;&lt;/b&gt;" style="text;html=1;strokeColor=none;fillColor=none;align=center;verticalAlign=middle;whiteSpace=wrap;rounded=0;" vertex="1" parent="1">
          <mxGeometry x="1198.58" y="1300" width="250.84" height="20" as="geometry" />
        </mxCell>
        <mxCell id="7nq3bFRQU4ekV5BbCSGI-178" value="" style="endArrow=classic;html=1;" edge="1" parent="1">
          <mxGeometry width="50" height="50" relative="1" as="geometry">
            <mxPoint x="1228.25" y="972.46" as="sourcePoint" />
            <mxPoint x="1268.25" y="972.46" as="targetPoint" />
          </mxGeometry>
        </mxCell>
        <mxCell id="7nq3bFRQU4ekV5BbCSGI-181" value="&lt;font face=&quot;Times New Roman&quot; style=&quot;font-size: 14px&quot;&gt;$$Y_3$$&lt;/font&gt;" style="text;html=1;strokeColor=none;fillColor=none;align=center;verticalAlign=middle;whiteSpace=wrap;rounded=0;" vertex="1" parent="1">
          <mxGeometry x="1379" y="949.96" width="40" height="20" as="geometry" />
        </mxCell>
        <mxCell id="7nq3bFRQU4ekV5BbCSGI-182" value="&lt;font face=&quot;Times New Roman&quot; style=&quot;font-size: 14px&quot;&gt;$$Y_3$$&lt;/font&gt;" style="text;html=1;strokeColor=none;fillColor=none;align=center;verticalAlign=middle;whiteSpace=wrap;rounded=0;" vertex="1" parent="1">
          <mxGeometry x="634.9200000000001" y="1187.42" width="40" height="20" as="geometry" />
        </mxCell>
        <mxCell id="7nq3bFRQU4ekV5BbCSGI-183" value="&lt;font face=&quot;Times New Roman&quot; style=&quot;font-size: 14px&quot;&gt;$$Y_2$$&lt;/font&gt;" style="text;html=1;strokeColor=none;fillColor=none;align=center;verticalAlign=middle;whiteSpace=wrap;rounded=0;" vertex="1" parent="1">
          <mxGeometry x="634.9200000000001" y="1077.25" width="40" height="20" as="geometry" />
        </mxCell>
        <mxCell id="7nq3bFRQU4ekV5BbCSGI-184" value="&lt;font face=&quot;Times New Roman&quot; style=&quot;font-size: 14px&quot;&gt;$$Y_1$$&lt;/font&gt;" style="text;html=1;strokeColor=none;fillColor=none;align=center;verticalAlign=middle;whiteSpace=wrap;rounded=0;" vertex="1" parent="1">
          <mxGeometry x="634.9200000000001" y="958.25" width="40" height="20" as="geometry" />
        </mxCell>
        <mxCell id="7nq3bFRQU4ekV5BbCSGI-195" value="" style="endArrow=classic;html=1;" edge="1" parent="1">
          <mxGeometry width="50" height="50" relative="1" as="geometry">
            <mxPoint x="479.08000000000004" y="1100.3500000000004" as="sourcePoint" />
            <mxPoint x="394.9200000000002" y="1100.3000000000002" as="targetPoint" />
          </mxGeometry>
        </mxCell>
        <mxCell id="7nq3bFRQU4ekV5BbCSGI-209" value="&lt;font face=&quot;Times New Roman&quot; style=&quot;font-size: 14px&quot;&gt;$$U_{t}$$&lt;/font&gt;" style="text;html=1;strokeColor=none;fillColor=none;align=center;verticalAlign=middle;whiteSpace=wrap;rounded=0;fontColor=default;" vertex="1" parent="1">
          <mxGeometry x="690" y="225.99999999999994" width="40" height="20" as="geometry" />
        </mxCell>
        <mxCell id="7nq3bFRQU4ekV5BbCSGI-211" value="&lt;font face=&quot;Times New Roman&quot; style=&quot;font-size: 14px&quot;&gt;$$IMF_i$$&lt;/font&gt;" style="text;html=1;strokeColor=none;fillColor=none;align=center;verticalAlign=middle;whiteSpace=wrap;rounded=0;fontColor=default;" vertex="1" parent="1">
          <mxGeometry x="30" y="519.79" width="40" height="20" as="geometry" />
        </mxCell>
        <mxCell id="7nq3bFRQU4ekV5BbCSGI-216" value="" style="shape=sumEllipse;perimeter=ellipsePerimeter;whiteSpace=wrap;html=1;backgroundOutline=1;fontColor=default;" vertex="1" parent="1">
          <mxGeometry x="617.9200000000001" y="642.0799999999999" width="24" height="24" as="geometry" />
        </mxCell>
        <mxCell id="7nq3bFRQU4ekV5BbCSGI-217" value="" style="shape=sumEllipse;perimeter=ellipsePerimeter;whiteSpace=wrap;html=1;backgroundOutline=1;fontColor=default;rotation=-45;fillColor=default;strokeColor=default;" vertex="1" parent="1">
          <mxGeometry x="618.92" y="750" width="24" height="24" as="geometry" />
        </mxCell>
        <mxCell id="7nq3bFRQU4ekV5BbCSGI-219" value="" style="edgeStyle=elbowEdgeStyle;elbow=horizontal;endArrow=classic;html=1;rounded=0;fontColor=default;strokeColor=default;labelBackgroundColor=default;" edge="1" parent="1">
          <mxGeometry width="50" height="50" relative="1" as="geometry">
            <mxPoint x="628.9200000000001" y="404.79" as="sourcePoint" />
            <mxPoint x="644.9200000000001" y="653.79" as="targetPoint" />
            <Array as="points">
              <mxPoint x="674.9200000000001" y="534.79" />
            </Array>
          </mxGeometry>
        </mxCell>
        <mxCell id="7nq3bFRQU4ekV5BbCSGI-228" value="" style="group;rotation=65;fontColor=default;" vertex="1" connectable="0" parent="1">
          <mxGeometry x="617.9200000000001" y="696.79" width="24" height="24" as="geometry" />
        </mxCell>
        <mxCell id="7nq3bFRQU4ekV5BbCSGI-220" value="" style="ellipse;whiteSpace=wrap;html=1;aspect=fixed;fontColor=default;fillColor=default;strokeColor=default;rotation=65;" vertex="1" parent="7nq3bFRQU4ekV5BbCSGI-228">
          <mxGeometry width="24" height="24" as="geometry" />
        </mxCell>
        <mxCell id="7nq3bFRQU4ekV5BbCSGI-234" value="" style="edgeStyle=isometricEdgeStyle;endArrow=none;html=1;rounded=0;labelBackgroundColor=default;fontColor=default;strokeColor=default;fillColor=default;" edge="1" parent="7nq3bFRQU4ekV5BbCSGI-228">
          <mxGeometry width="50" height="100" relative="1" as="geometry">
            <mxPoint x="3" y="11" as="sourcePoint" />
            <mxPoint x="21" y="13" as="targetPoint" />
            <Array as="points" />
          </mxGeometry>
        </mxCell>
        <mxCell id="7nq3bFRQU4ekV5BbCSGI-238" value="" style="edgeStyle=elbowEdgeStyle;elbow=vertical;endArrow=classic;html=1;rounded=0;labelBackgroundColor=default;fontColor=default;strokeColor=default;fillColor=default;" edge="1" parent="1">
          <mxGeometry width="50" height="50" relative="1" as="geometry">
            <mxPoint x="568.9200000000001" y="708.79" as="sourcePoint" />
            <mxPoint x="627.9200000000001" y="364.79" as="targetPoint" />
            <Array as="points">
              <mxPoint x="588.9200000000001" y="334.79" />
            </Array>
          </mxGeometry>
        </mxCell>
        <mxCell id="7nq3bFRQU4ekV5BbCSGI-239" value="" style="endArrow=classic;html=1;rounded=0;labelBackgroundColor=default;fontColor=default;strokeColor=default;fillColor=default;" edge="1" parent="1">
          <mxGeometry width="50" height="50" relative="1" as="geometry">
            <mxPoint x="568.9200000000001" y="708.79" as="sourcePoint" />
            <mxPoint x="617.9200000000001" y="708.4499999999999" as="targetPoint" />
          </mxGeometry>
        </mxCell>
        <mxCell id="7nq3bFRQU4ekV5BbCSGI-243" value="" style="endArrow=none;html=1;rounded=0;labelBackgroundColor=default;fontColor=default;strokeColor=default;fillColor=default;" edge="1" parent="1">
          <mxGeometry width="50" height="50" relative="1" as="geometry">
            <mxPoint x="519" y="530" as="sourcePoint" />
            <mxPoint x="569" y="530" as="targetPoint" />
          </mxGeometry>
        </mxCell>
        <mxCell id="7nq3bFRQU4ekV5BbCSGI-245" value="" style="endArrow=classic;html=1;rounded=0;labelBackgroundColor=default;fontColor=default;strokeColor=default;fillColor=default;" edge="1" parent="1">
          <mxGeometry width="50" height="50" relative="1" as="geometry">
            <mxPoint x="630.5799999999999" y="720.79" as="sourcePoint" />
            <mxPoint x="630.58" y="750" as="targetPoint" />
          </mxGeometry>
        </mxCell>
        <mxCell id="7nq3bFRQU4ekV5BbCSGI-246" value="" style="edgeStyle=segmentEdgeStyle;endArrow=classic;html=1;rounded=0;labelBackgroundColor=default;fontColor=default;strokeColor=default;fillColor=default;" edge="1" parent="1">
          <mxGeometry width="50" height="50" relative="1" as="geometry">
            <mxPoint x="251" y="529" as="sourcePoint" />
            <mxPoint x="620" y="762" as="targetPoint" />
            <Array as="points">
              <mxPoint x="251" y="762" />
            </Array>
          </mxGeometry>
        </mxCell>
        <mxCell id="7nq3bFRQU4ekV5BbCSGI-251" value="" style="ellipse;whiteSpace=wrap;html=1;flipH=1;fillColor=#FF553B;strokeColor=default;fontColor=default;labelBackgroundColor=default;" vertex="1" parent="1">
          <mxGeometry x="892.74" y="454.2699999999999" width="58.26" height="31.46" as="geometry" />
        </mxCell>
        <mxCell id="7nq3bFRQU4ekV5BbCSGI-252" value="" style="ellipse;whiteSpace=wrap;html=1;flipH=1;fillColor=#FF553B;strokeColor=default;fontColor=default;labelBackgroundColor=default;" vertex="1" parent="1">
          <mxGeometry x="892.74" y="393.31" width="58.26" height="31.46" as="geometry" />
        </mxCell>
        <mxCell id="7nq3bFRQU4ekV5BbCSGI-253" value="" style="endArrow=classic;html=1;flipH=1;strokeColor=default;fontColor=default;labelBackgroundColor=default;exitX=0.5;exitY=1;exitDx=0;exitDy=0;" edge="1" parent="1">
          <mxGeometry width="50" height="50" relative="1" as="geometry">
            <mxPoint x="921.71" y="424.77" as="sourcePoint" />
            <mxPoint x="921.5800000000002" y="453.31000000000006" as="targetPoint" />
          </mxGeometry>
        </mxCell>
        <mxCell id="7nq3bFRQU4ekV5BbCSGI-255" value="" style="ellipse;whiteSpace=wrap;html=1;flipH=1;fillColor=#FF553B;strokeColor=default;fontColor=default;labelBackgroundColor=default;" vertex="1" parent="1">
          <mxGeometry x="892.74" y="654.81" width="58.26" height="31.46" as="geometry" />
        </mxCell>
        <mxCell id="7nq3bFRQU4ekV5BbCSGI-256" value="" style="ellipse;whiteSpace=wrap;html=1;flipH=1;fillColor=#FF553B;strokeColor=default;fontColor=default;labelBackgroundColor=default;" vertex="1" parent="1">
          <mxGeometry x="892.74" y="593.85" width="58.26" height="31.46" as="geometry" />
        </mxCell>
        <mxCell id="7nq3bFRQU4ekV5BbCSGI-257" value="" style="endArrow=classic;html=1;flipH=1;strokeColor=default;fontColor=default;labelBackgroundColor=default;exitX=0.5;exitY=1;exitDx=0;exitDy=0;" edge="1" parent="1">
          <mxGeometry width="50" height="50" relative="1" as="geometry">
            <mxPoint x="921.71" y="625.31" as="sourcePoint" />
            <mxPoint x="921.5800000000002" y="653.8500000000001" as="targetPoint" />
          </mxGeometry>
        </mxCell>
        <mxCell id="7nq3bFRQU4ekV5BbCSGI-258" value="" style="endArrow=classic;html=1;flipH=1;strokeColor=default;fontColor=default;labelBackgroundColor=default;exitX=0.5;exitY=1;exitDx=0;exitDy=0;" edge="1" parent="1">
          <mxGeometry width="50" height="50" relative="1" as="geometry">
            <mxPoint x="921.7099999999999" y="565.31" as="sourcePoint" />
            <mxPoint x="921.58" y="593.8500000000001" as="targetPoint" />
          </mxGeometry>
        </mxCell>
        <mxCell id="7nq3bFRQU4ekV5BbCSGI-260" value="Flattern" style="rounded=0;whiteSpace=wrap;html=1;labelBackgroundColor=default;fontFamily=Times New Roman;fontSize=14;fontColor=default;strokeColor=default;fillColor=#FFFFFF;" vertex="1" parent="1">
          <mxGeometry x="716" y="629.0799999999999" width="90" height="50" as="geometry" />
        </mxCell>
        <mxCell id="7nq3bFRQU4ekV5BbCSGI-264" value="" style="edgeStyle=segmentEdgeStyle;endArrow=classic;html=1;rounded=0;labelBackgroundColor=default;fontFamily=Times New Roman;fontSize=14;fontColor=default;strokeColor=default;fillColor=default;entryX=0.468;entryY=1.01;entryDx=0;entryDy=0;entryPerimeter=0;" edge="1" parent="1" target="7nq3bFRQU4ekV5BbCSGI-260">
          <mxGeometry width="50" height="50" relative="1" as="geometry">
            <mxPoint x="642.92" y="762" as="sourcePoint" />
            <mxPoint x="692.92" y="712" as="targetPoint" />
          </mxGeometry>
        </mxCell>
        <mxCell id="7nq3bFRQU4ekV5BbCSGI-265" value="Repeat" style="rounded=0;whiteSpace=wrap;html=1;labelBackgroundColor=default;fontFamily=Times New Roman;fontSize=14;fontColor=default;strokeColor=default;fillColor=#FFFFFF;" vertex="1" parent="1">
          <mxGeometry x="716" y="506.79" width="90" height="50" as="geometry" />
        </mxCell>
        <mxCell id="7nq3bFRQU4ekV5BbCSGI-266" value="" style="endArrow=classic;html=1;rounded=0;labelBackgroundColor=default;fontFamily=Times New Roman;fontSize=14;fontColor=default;strokeColor=default;fillColor=default;exitX=0.5;exitY=0;exitDx=0;exitDy=0;entryX=0.5;entryY=1;entryDx=0;entryDy=0;" edge="1" parent="1" source="7nq3bFRQU4ekV5BbCSGI-260" target="7nq3bFRQU4ekV5BbCSGI-265">
          <mxGeometry width="50" height="50" relative="1" as="geometry">
            <mxPoint x="760" y="680" as="sourcePoint" />
            <mxPoint x="810" y="630" as="targetPoint" />
          </mxGeometry>
        </mxCell>
        <mxCell id="7nq3bFRQU4ekV5BbCSGI-270" value="" style="endArrow=none;html=1;rounded=0;labelBackgroundColor=default;fontFamily=Times New Roman;fontSize=14;fontColor=default;strokeColor=default;fillColor=default;" edge="1" parent="1">
          <mxGeometry width="50" height="50" relative="1" as="geometry">
            <mxPoint x="806" y="533.7" as="sourcePoint" />
            <mxPoint x="856" y="533.7" as="targetPoint" />
          </mxGeometry>
        </mxCell>
        <mxCell id="7nq3bFRQU4ekV5BbCSGI-271" value="" style="endArrow=none;html=1;rounded=0;labelBackgroundColor=default;fontFamily=Times New Roman;fontSize=14;fontColor=default;strokeColor=default;fillColor=default;" edge="1" parent="1">
          <mxGeometry width="50" height="50" relative="1" as="geometry">
            <mxPoint x="856" y="670" as="sourcePoint" />
            <mxPoint x="856" y="410" as="targetPoint" />
          </mxGeometry>
        </mxCell>
        <mxCell id="7nq3bFRQU4ekV5BbCSGI-272" value="" style="endArrow=classic;html=1;rounded=0;labelBackgroundColor=default;fontFamily=Times New Roman;fontSize=14;fontColor=default;strokeColor=default;fillColor=default;" edge="1" parent="1">
          <mxGeometry width="50" height="50" relative="1" as="geometry">
            <mxPoint x="856" y="410" as="sourcePoint" />
            <mxPoint x="890" y="410" as="targetPoint" />
          </mxGeometry>
        </mxCell>
        <mxCell id="7nq3bFRQU4ekV5BbCSGI-274" value="" style="endArrow=classic;html=1;rounded=0;labelBackgroundColor=default;fontFamily=Times New Roman;fontSize=14;fontColor=default;strokeColor=default;fillColor=default;" edge="1" parent="1">
          <mxGeometry width="50" height="50" relative="1" as="geometry">
            <mxPoint x="856" y="610.08" as="sourcePoint" />
            <mxPoint x="890" y="610" as="targetPoint" />
          </mxGeometry>
        </mxCell>
        <mxCell id="7nq3bFRQU4ekV5BbCSGI-275" value="" style="endArrow=classic;html=1;rounded=0;labelBackgroundColor=default;fontFamily=Times New Roman;fontSize=14;fontColor=default;strokeColor=default;fillColor=default;" edge="1" parent="1">
          <mxGeometry width="50" height="50" relative="1" as="geometry">
            <mxPoint x="855.74" y="670.3" as="sourcePoint" />
            <mxPoint x="890" y="670" as="targetPoint" />
          </mxGeometry>
        </mxCell>
        <mxCell id="7nq3bFRQU4ekV5BbCSGI-276" value="&lt;font style=&quot;font-size: 28px ; line-height: 0.8&quot;&gt;...&lt;/font&gt;" style="text;html=1;strokeColor=none;fillColor=none;align=center;verticalAlign=middle;whiteSpace=wrap;rounded=0;labelBackgroundColor=default;fontFamily=Times New Roman;fontSize=14;fontColor=default;" vertex="1" parent="1">
          <mxGeometry x="891" y="525" width="60" height="16.04" as="geometry" />
        </mxCell>
        <mxCell id="7nq3bFRQU4ekV5BbCSGI-291" value="GANG-Dense" style="rounded=0;whiteSpace=wrap;html=1;labelBackgroundColor=default;fontFamily=Times New Roman;fontSize=14;fontColor=default;strokeColor=default;fillColor=#FFFFFF;" vertex="1" parent="1">
          <mxGeometry x="1031" y="506.04" width="90" height="50" as="geometry" />
        </mxCell>
        <mxCell id="7nq3bFRQU4ekV5BbCSGI-292" value="" style="endArrow=none;html=1;rounded=0;labelBackgroundColor=default;fontFamily=Times New Roman;fontSize=14;fontColor=default;strokeColor=default;fillColor=default;" edge="1" parent="1">
          <mxGeometry width="50" height="50" relative="1" as="geometry">
            <mxPoint x="951" y="408.7" as="sourcePoint" />
            <mxPoint x="991" y="408.7" as="targetPoint" />
          </mxGeometry>
        </mxCell>
        <mxCell id="7nq3bFRQU4ekV5BbCSGI-293" value="" style="endArrow=none;html=1;rounded=0;labelBackgroundColor=default;fontFamily=Times New Roman;fontSize=14;fontColor=default;strokeColor=default;fillColor=default;" edge="1" parent="1">
          <mxGeometry width="50" height="50" relative="1" as="geometry">
            <mxPoint x="951" y="469.65999999999997" as="sourcePoint" />
            <mxPoint x="991" y="469.65999999999997" as="targetPoint" />
          </mxGeometry>
        </mxCell>
        <mxCell id="7nq3bFRQU4ekV5BbCSGI-294" value="" style="endArrow=none;html=1;rounded=0;labelBackgroundColor=default;fontFamily=Times New Roman;fontSize=14;fontColor=default;strokeColor=default;fillColor=default;" edge="1" parent="1">
          <mxGeometry width="50" height="50" relative="1" as="geometry">
            <mxPoint x="951" y="610.08" as="sourcePoint" />
            <mxPoint x="991" y="610.08" as="targetPoint" />
          </mxGeometry>
        </mxCell>
        <mxCell id="7nq3bFRQU4ekV5BbCSGI-295" value="" style="endArrow=none;html=1;rounded=0;labelBackgroundColor=default;fontFamily=Times New Roman;fontSize=14;fontColor=default;strokeColor=default;fillColor=default;" edge="1" parent="1">
          <mxGeometry width="50" height="50" relative="1" as="geometry">
            <mxPoint x="951" y="670.2" as="sourcePoint" />
            <mxPoint x="991" y="670.2" as="targetPoint" />
          </mxGeometry>
        </mxCell>
        <mxCell id="7nq3bFRQU4ekV5BbCSGI-296" value="" style="endArrow=none;html=1;rounded=0;labelBackgroundColor=default;fontFamily=Times New Roman;fontSize=14;fontColor=default;strokeColor=default;fillColor=default;" edge="1" parent="1">
          <mxGeometry width="50" height="50" relative="1" as="geometry">
            <mxPoint x="991" y="669.79" as="sourcePoint" />
            <mxPoint x="991" y="409" as="targetPoint" />
          </mxGeometry>
        </mxCell>
        <mxCell id="7nq3bFRQU4ekV5BbCSGI-297" value="" style="endArrow=classic;html=1;rounded=0;labelBackgroundColor=default;fontFamily=Times New Roman;fontSize=14;fontColor=default;strokeColor=default;fillColor=default;" edge="1" parent="1">
          <mxGeometry width="50" height="50" relative="1" as="geometry">
            <mxPoint x="991" y="532.89" as="sourcePoint" />
            <mxPoint x="1031" y="532.89" as="targetPoint" />
          </mxGeometry>
        </mxCell>
        <mxCell id="7nq3bFRQU4ekV5BbCSGI-298" value="" style="endArrow=classic;html=1;rounded=0;labelBackgroundColor=default;fontFamily=Times New Roman;fontSize=14;fontColor=default;strokeColor=default;fillColor=default;" edge="1" parent="1">
          <mxGeometry width="50" height="50" relative="1" as="geometry">
            <mxPoint x="1121" y="533" as="sourcePoint" />
            <mxPoint x="1161" y="533" as="targetPoint" />
          </mxGeometry>
        </mxCell>
        <mxCell id="7nq3bFRQU4ekV5BbCSGI-300" value="Output" style="rounded=0;whiteSpace=wrap;html=1;labelBackgroundColor=default;fontFamily=Times New Roman;fontSize=14;fontColor=default;strokeColor=default;fillColor=#FFFFFF;" vertex="1" parent="1">
          <mxGeometry x="1159.58" y="508.02" width="90" height="50" as="geometry" />
        </mxCell>
        <mxCell id="7nq3bFRQU4ekV5BbCSGI-301" value="" style="endArrow=classic;html=1;rounded=0;labelBackgroundColor=default;fontFamily=Times New Roman;fontSize=14;fontColor=default;strokeColor=default;fillColor=default;" edge="1" parent="1">
          <mxGeometry width="50" height="50" relative="1" as="geometry">
            <mxPoint x="856" y="469.71" as="sourcePoint" />
            <mxPoint x="890" y="469.71" as="targetPoint" />
          </mxGeometry>
        </mxCell>
        <mxCell id="7nq3bFRQU4ekV5BbCSGI-302" value="" style="endArrow=classic;html=1;strokeColor=default;labelBackgroundColor=default;fontColor=default;" edge="1" parent="1">
          <mxGeometry width="50" height="50" relative="1" as="geometry">
            <mxPoint x="70.00000000000034" y="530.8" as="sourcePoint" />
            <mxPoint x="109.99999999999943" y="530.8" as="targetPoint" />
          </mxGeometry>
        </mxCell>
        <mxCell id="7nq3bFRQU4ekV5BbCSGI-304" value="" style="rounded=0;whiteSpace=wrap;html=1;fillColor=#009900;" vertex="1" parent="1">
          <mxGeometry x="277.26" y="1674.21" width="60" height="10" as="geometry" />
        </mxCell>
        <mxCell id="7nq3bFRQU4ekV5BbCSGI-305" value="" style="rounded=0;whiteSpace=wrap;html=1;fillColor=#009900;" vertex="1" parent="1">
          <mxGeometry x="269.26" y="1680.21" width="60" height="10" as="geometry" />
        </mxCell>
        <mxCell id="7nq3bFRQU4ekV5BbCSGI-306" value="" style="rounded=0;whiteSpace=wrap;html=1;fillColor=#009900;" vertex="1" parent="1">
          <mxGeometry x="260.26" y="1686.21" width="60" height="10" as="geometry" />
        </mxCell>
        <mxCell id="7nq3bFRQU4ekV5BbCSGI-307" value="" style="rounded=0;whiteSpace=wrap;html=1;fillColor=#009900;" vertex="1" parent="1">
          <mxGeometry x="252.26" y="1691.21" width="60" height="10" as="geometry" />
        </mxCell>
        <mxCell id="7nq3bFRQU4ekV5BbCSGI-308" value="" style="rounded=0;whiteSpace=wrap;html=1;fillColor=#009900;" vertex="1" parent="1">
          <mxGeometry x="292.26" y="1648.21" width="60" height="10" as="geometry" />
        </mxCell>
        <mxCell id="7nq3bFRQU4ekV5BbCSGI-309" value="&lt;b&gt;&lt;font style=&quot;font-size: 18px&quot; face=&quot;Times New Roman&quot;&gt;...&lt;/font&gt;&lt;/b&gt;" style="text;html=1;strokeColor=none;fillColor=none;align=center;verticalAlign=middle;whiteSpace=wrap;rounded=0;rotation=-45;" vertex="1" parent="1">
          <mxGeometry x="292.26" y="1652.21" width="40" height="20" as="geometry" />
        </mxCell>
        <mxCell id="7nq3bFRQU4ekV5BbCSGI-310" value="" style="rounded=0;whiteSpace=wrap;html=1;fillColor=#FF8000;" vertex="1" parent="1">
          <mxGeometry x="439.6" y="1674.21" width="60" height="10" as="geometry" />
        </mxCell>
        <mxCell id="7nq3bFRQU4ekV5BbCSGI-311" value="" style="rounded=0;whiteSpace=wrap;html=1;fillColor=#FF8000;" vertex="1" parent="1">
          <mxGeometry x="431.6" y="1680.21" width="60" height="10" as="geometry" />
        </mxCell>
        <mxCell id="7nq3bFRQU4ekV5BbCSGI-312" value="" style="rounded=0;whiteSpace=wrap;html=1;fillColor=#FF8000;" vertex="1" parent="1">
          <mxGeometry x="422.6" y="1686.21" width="60" height="10" as="geometry" />
        </mxCell>
        <mxCell id="7nq3bFRQU4ekV5BbCSGI-313" value="" style="rounded=0;whiteSpace=wrap;html=1;fillColor=#FF8000;" vertex="1" parent="1">
          <mxGeometry x="414.6" y="1691.21" width="60" height="10" as="geometry" />
        </mxCell>
        <mxCell id="7nq3bFRQU4ekV5BbCSGI-314" value="" style="rounded=0;whiteSpace=wrap;html=1;fillColor=#FF8000;" vertex="1" parent="1">
          <mxGeometry x="454.6" y="1648.21" width="60" height="10" as="geometry" />
        </mxCell>
        <mxCell id="7nq3bFRQU4ekV5BbCSGI-315" value="&lt;b&gt;&lt;font style=&quot;font-size: 18px&quot; face=&quot;Times New Roman&quot;&gt;...&lt;/font&gt;&lt;/b&gt;" style="text;html=1;strokeColor=none;fillColor=none;align=center;verticalAlign=middle;whiteSpace=wrap;rounded=0;rotation=-45;" vertex="1" parent="1">
          <mxGeometry x="454.6" y="1652.21" width="40" height="20" as="geometry" />
        </mxCell>
        <mxCell id="7nq3bFRQU4ekV5BbCSGI-316" value="" style="rounded=0;whiteSpace=wrap;html=1;fillColor=#6666FF;" vertex="1" parent="1">
          <mxGeometry x="582.0999999999999" y="1674.21" width="60" height="10" as="geometry" />
        </mxCell>
        <mxCell id="7nq3bFRQU4ekV5BbCSGI-317" value="" style="rounded=0;whiteSpace=wrap;html=1;fillColor=#6666FF;" vertex="1" parent="1">
          <mxGeometry x="574.1" y="1680.21" width="60" height="10" as="geometry" />
        </mxCell>
        <mxCell id="7nq3bFRQU4ekV5BbCSGI-318" value="" style="rounded=0;whiteSpace=wrap;html=1;fillColor=#6666FF;" vertex="1" parent="1">
          <mxGeometry x="565.1" y="1686.21" width="60" height="10" as="geometry" />
        </mxCell>
        <mxCell id="7nq3bFRQU4ekV5BbCSGI-319" value="" style="rounded=0;whiteSpace=wrap;html=1;fillColor=#6666FF;" vertex="1" parent="1">
          <mxGeometry x="557.1" y="1691.21" width="60" height="10" as="geometry" />
        </mxCell>
        <mxCell id="7nq3bFRQU4ekV5BbCSGI-320" value="" style="rounded=0;whiteSpace=wrap;html=1;fillColor=#6666FF;" vertex="1" parent="1">
          <mxGeometry x="597.0999999999999" y="1648.21" width="60" height="10" as="geometry" />
        </mxCell>
        <mxCell id="7nq3bFRQU4ekV5BbCSGI-321" value="&lt;b&gt;&lt;font style=&quot;font-size: 18px&quot; face=&quot;Times New Roman&quot;&gt;...&lt;/font&gt;&lt;/b&gt;" style="text;html=1;strokeColor=none;fillColor=none;align=center;verticalAlign=middle;whiteSpace=wrap;rounded=0;rotation=-45;" vertex="1" parent="1">
          <mxGeometry x="597.0999999999999" y="1652.21" width="40" height="20" as="geometry" />
        </mxCell>
        <mxCell id="7nq3bFRQU4ekV5BbCSGI-322" value="" style="endArrow=classic;html=1;strokeColor=default;labelBackgroundColor=default;fontColor=default;" edge="1" parent="1">
          <mxGeometry width="50" height="50" relative="1" as="geometry">
            <mxPoint x="361.26" y="1680.71" as="sourcePoint" />
            <mxPoint x="410" y="1680.42" as="targetPoint" />
          </mxGeometry>
        </mxCell>
        <mxCell id="7nq3bFRQU4ekV5BbCSGI-324" value="" style="endArrow=classic;html=1;strokeColor=default;labelBackgroundColor=default;fontColor=default;" edge="1" parent="1">
          <mxGeometry width="50" height="50" relative="1" as="geometry">
            <mxPoint x="517.1000000000004" y="1680.71" as="sourcePoint" />
            <mxPoint x="557.0999999999995" y="1680.71" as="targetPoint" />
          </mxGeometry>
        </mxCell>
        <mxCell id="7nq3bFRQU4ekV5BbCSGI-325" value="" style="rounded=0;whiteSpace=wrap;html=1;fillColor=#007FFF;" vertex="1" parent="1">
          <mxGeometry x="740.9200000000001" y="1520" width="36" height="23" as="geometry" />
        </mxCell>
        <mxCell id="7nq3bFRQU4ekV5BbCSGI-326" value="&lt;font face=&quot;Times New Roman&quot; style=&quot;font-size: 14px&quot;&gt;$$GAP$$&lt;/font&gt;" style="text;html=1;strokeColor=none;fillColor=none;align=center;verticalAlign=middle;whiteSpace=wrap;rounded=0;" vertex="1" parent="1">
          <mxGeometry x="739.9200000000001" y="1520" width="40" height="20" as="geometry" />
        </mxCell>
        <mxCell id="7nq3bFRQU4ekV5BbCSGI-327" value="" style="rounded=0;whiteSpace=wrap;html=1;fillColor=#007FFF;" vertex="1" parent="1">
          <mxGeometry x="740.9200000000001" y="1575" width="36" height="23" as="geometry" />
        </mxCell>
        <mxCell id="7nq3bFRQU4ekV5BbCSGI-328" value="&lt;font face=&quot;Times New Roman&quot; style=&quot;font-size: 16px&quot;&gt;FC&lt;/font&gt;" style="text;html=1;strokeColor=none;fillColor=none;align=center;verticalAlign=middle;whiteSpace=wrap;rounded=0;fontSize=16;" vertex="1" parent="1">
          <mxGeometry x="738.9200000000001" y="1576" width="40" height="20" as="geometry" />
        </mxCell>
        <mxCell id="7nq3bFRQU4ekV5BbCSGI-329" value="" style="rounded=0;whiteSpace=wrap;html=1;fillColor=#007FFF;" vertex="1" parent="1">
          <mxGeometry x="738.4200000000001" y="1630.5" width="45" height="23" as="geometry" />
        </mxCell>
        <mxCell id="7nq3bFRQU4ekV5BbCSGI-330" value="&lt;font face=&quot;Times New Roman&quot; style=&quot;font-size: 16px&quot;&gt;ReLU&lt;/font&gt;" style="text;html=1;strokeColor=none;fillColor=none;align=center;verticalAlign=middle;whiteSpace=wrap;rounded=0;fontSize=16;" vertex="1" parent="1">
          <mxGeometry x="741.0800000000002" y="1631.5" width="40" height="20" as="geometry" />
        </mxCell>
        <mxCell id="7nq3bFRQU4ekV5BbCSGI-331" value="" style="rounded=0;whiteSpace=wrap;html=1;fillColor=#007FFF;" vertex="1" parent="1">
          <mxGeometry x="741.9200000000001" y="1685" width="36" height="23" as="geometry" />
        </mxCell>
        <mxCell id="7nq3bFRQU4ekV5BbCSGI-332" value="&lt;font face=&quot;Times New Roman&quot; style=&quot;font-size: 16px&quot;&gt;FC&lt;/font&gt;" style="text;html=1;strokeColor=none;fillColor=none;align=center;verticalAlign=middle;whiteSpace=wrap;rounded=0;fontSize=16;" vertex="1" parent="1">
          <mxGeometry x="739.74" y="1686" width="40" height="20" as="geometry" />
        </mxCell>
        <mxCell id="7nq3bFRQU4ekV5BbCSGI-333" value="" style="endArrow=classic;html=1;" edge="1" parent="1">
          <mxGeometry width="50" height="50" relative="1" as="geometry">
            <mxPoint x="759.4200000000001" y="1543" as="sourcePoint" />
            <mxPoint x="759.4200000000001" y="1573" as="targetPoint" />
          </mxGeometry>
        </mxCell>
        <mxCell id="7nq3bFRQU4ekV5BbCSGI-334" value="" style="endArrow=classic;html=1;" edge="1" parent="1">
          <mxGeometry width="50" height="50" relative="1" as="geometry">
            <mxPoint x="759.4200000000001" y="1652.5" as="sourcePoint" />
            <mxPoint x="759.4200000000001" y="1682.5" as="targetPoint" />
          </mxGeometry>
        </mxCell>
        <mxCell id="7nq3bFRQU4ekV5BbCSGI-335" value="" style="endArrow=classic;html=1;" edge="1" parent="1">
          <mxGeometry width="50" height="50" relative="1" as="geometry">
            <mxPoint x="759.4200000000001" y="1708" as="sourcePoint" />
            <mxPoint x="759.4200000000001" y="1738" as="targetPoint" />
          </mxGeometry>
        </mxCell>
        <mxCell id="7nq3bFRQU4ekV5BbCSGI-336" value="" style="rounded=0;whiteSpace=wrap;html=1;fillColor=#007FFF;" vertex="1" parent="1">
          <mxGeometry x="730.9200000000001" y="1738.5" width="60" height="23" as="geometry" />
        </mxCell>
        <mxCell id="7nq3bFRQU4ekV5BbCSGI-337" value="" style="endArrow=classic;html=1;" edge="1" parent="1">
          <mxGeometry width="50" height="50" relative="1" as="geometry">
            <mxPoint x="759.4499999999998" y="1761.5" as="sourcePoint" />
            <mxPoint x="759.4499999999998" y="1791.5" as="targetPoint" />
          </mxGeometry>
        </mxCell>
        <mxCell id="7nq3bFRQU4ekV5BbCSGI-338" value="&lt;font face=&quot;Times New Roman&quot; style=&quot;font-size: 16px&quot;&gt;Sigmoid&lt;/font&gt;" style="text;html=1;strokeColor=none;fillColor=none;align=center;verticalAlign=middle;whiteSpace=wrap;rounded=0;fontSize=16;" vertex="1" parent="1">
          <mxGeometry x="740.4200000000001" y="1739.5" width="40" height="20" as="geometry" />
        </mxCell>
        <mxCell id="7nq3bFRQU4ekV5BbCSGI-339" value="" style="endArrow=classic;html=1;" edge="1" parent="1">
          <mxGeometry width="50" height="50" relative="1" as="geometry">
            <mxPoint x="760.3299999999999" y="1817.5" as="sourcePoint" />
            <mxPoint x="760.3299999999999" y="1847.5" as="targetPoint" />
          </mxGeometry>
        </mxCell>
        <mxCell id="7nq3bFRQU4ekV5BbCSGI-340" value="&lt;b&gt;&lt;font style=&quot;font-size: 14px&quot; face=&quot;Times New Roman&quot;&gt;Conv&lt;/font&gt;&lt;/b&gt;" style="text;html=1;strokeColor=none;fillColor=none;align=center;verticalAlign=middle;whiteSpace=wrap;rounded=0;" vertex="1" parent="1">
          <mxGeometry x="283.6" y="1705.9" width="40" height="20" as="geometry" />
        </mxCell>
        <mxCell id="7nq3bFRQU4ekV5BbCSGI-341" value="&lt;b&gt;&lt;font face=&quot;Times New Roman&quot; style=&quot;font-size: 14px&quot;&gt;Conv&lt;/font&gt;&lt;/b&gt;" style="text;html=1;strokeColor=none;fillColor=none;align=center;verticalAlign=middle;whiteSpace=wrap;rounded=0;" vertex="1" parent="1">
          <mxGeometry x="433.1" y="1707.46" width="40" height="20" as="geometry" />
        </mxCell>
        <mxCell id="7nq3bFRQU4ekV5BbCSGI-342" value="&lt;b&gt;&lt;font style=&quot;font-size: 14px&quot; face=&quot;Times New Roman&quot;&gt;Conv&lt;/font&gt;&lt;/b&gt;" style="text;html=1;strokeColor=none;fillColor=none;align=center;verticalAlign=middle;whiteSpace=wrap;rounded=0;" vertex="1" parent="1">
          <mxGeometry x="572.1" y="1707.21" width="40" height="20" as="geometry" />
        </mxCell>
        <mxCell id="7nq3bFRQU4ekV5BbCSGI-343" value="&lt;font face=&quot;Times New Roman&quot; style=&quot;font-size: 14px&quot;&gt;$$X_i$$&lt;/font&gt;" style="text;html=1;strokeColor=none;fillColor=none;align=center;verticalAlign=middle;whiteSpace=wrap;rounded=0;" vertex="1" parent="1">
          <mxGeometry x="368.26" y="1652.21" width="40" height="20" as="geometry" />
        </mxCell>
        <mxCell id="7nq3bFRQU4ekV5BbCSGI-344" value="&lt;font face=&quot;Times New Roman&quot; style=&quot;font-size: 14px&quot;&gt;$$\tilde{X_t}$$&lt;/font&gt;" style="text;html=1;strokeColor=none;fillColor=none;align=center;verticalAlign=middle;whiteSpace=wrap;rounded=0;" vertex="1" parent="1">
          <mxGeometry x="758.74" y="1817.5" width="40" height="20" as="geometry" />
        </mxCell>
        <mxCell id="7nq3bFRQU4ekV5BbCSGI-345" value="" style="endArrow=classic;html=1;" edge="1" parent="1">
          <mxGeometry width="50" height="50" relative="1" as="geometry">
            <mxPoint x="759.4200000000001" y="1599" as="sourcePoint" />
            <mxPoint x="759.4200000000001" y="1629" as="targetPoint" />
          </mxGeometry>
        </mxCell>
        <mxCell id="7nq3bFRQU4ekV5BbCSGI-346" value="&lt;font face=&quot;Times New Roman&quot; style=&quot;font-size: 14px&quot;&gt;$$IMF_i$$&lt;/font&gt;" style="text;html=1;strokeColor=none;fillColor=none;align=center;verticalAlign=middle;whiteSpace=wrap;rounded=0;fontColor=default;" vertex="1" parent="1">
          <mxGeometry x="160" y="1671.21" width="40" height="20" as="geometry" />
        </mxCell>
        <mxCell id="7nq3bFRQU4ekV5BbCSGI-347" value="" style="shape=sumEllipse;perimeter=ellipsePerimeter;whiteSpace=wrap;html=1;backgroundOutline=1;fontColor=default;" vertex="1" parent="1">
          <mxGeometry x="747.9200000000001" y="1793.5" width="24" height="24" as="geometry" />
        </mxCell>
        <mxCell id="7nq3bFRQU4ekV5BbCSGI-348" value="" style="shape=sumEllipse;perimeter=ellipsePerimeter;whiteSpace=wrap;html=1;backgroundOutline=1;fontColor=default;rotation=-45;fillColor=default;strokeColor=default;" vertex="1" parent="1">
          <mxGeometry x="748.92" y="1901.42" width="24" height="24" as="geometry" />
        </mxCell>
        <mxCell id="7nq3bFRQU4ekV5BbCSGI-349" value="" style="edgeStyle=elbowEdgeStyle;elbow=horizontal;endArrow=classic;html=1;rounded=0;fontColor=default;strokeColor=default;labelBackgroundColor=default;" edge="1" parent="1">
          <mxGeometry width="50" height="50" relative="1" as="geometry">
            <mxPoint x="758.9200000000001" y="1556.21" as="sourcePoint" />
            <mxPoint x="775" y="1805" as="targetPoint" />
            <Array as="points">
              <mxPoint x="804.9200000000001" y="1686.21" />
            </Array>
          </mxGeometry>
        </mxCell>
        <mxCell id="7nq3bFRQU4ekV5BbCSGI-350" value="" style="group;rotation=65;fontColor=default;" vertex="1" connectable="0" parent="1">
          <mxGeometry x="747.9200000000001" y="1848.21" width="24" height="24" as="geometry" />
        </mxCell>
        <mxCell id="7nq3bFRQU4ekV5BbCSGI-351" value="" style="ellipse;whiteSpace=wrap;html=1;aspect=fixed;fontColor=default;fillColor=default;strokeColor=default;rotation=65;" vertex="1" parent="7nq3bFRQU4ekV5BbCSGI-350">
          <mxGeometry width="24" height="24" as="geometry" />
        </mxCell>
        <mxCell id="7nq3bFRQU4ekV5BbCSGI-352" value="" style="edgeStyle=isometricEdgeStyle;endArrow=none;html=1;rounded=0;labelBackgroundColor=default;fontColor=default;strokeColor=default;fillColor=default;" edge="1" parent="7nq3bFRQU4ekV5BbCSGI-350">
          <mxGeometry width="50" height="100" relative="1" as="geometry">
            <mxPoint x="3" y="11" as="sourcePoint" />
            <mxPoint x="21" y="13" as="targetPoint" />
            <Array as="points" />
          </mxGeometry>
        </mxCell>
        <mxCell id="7nq3bFRQU4ekV5BbCSGI-353" value="" style="edgeStyle=elbowEdgeStyle;elbow=vertical;endArrow=classic;html=1;rounded=0;labelBackgroundColor=default;fontColor=default;strokeColor=default;fillColor=default;" edge="1" parent="1">
          <mxGeometry width="50" height="50" relative="1" as="geometry">
            <mxPoint x="698.9200000000001" y="1860.21" as="sourcePoint" />
            <mxPoint x="757.9200000000001" y="1516.21" as="targetPoint" />
            <Array as="points">
              <mxPoint x="718.9200000000001" y="1486.21" />
            </Array>
          </mxGeometry>
        </mxCell>
        <mxCell id="7nq3bFRQU4ekV5BbCSGI-354" value="" style="endArrow=classic;html=1;rounded=0;labelBackgroundColor=default;fontColor=default;strokeColor=default;fillColor=default;" edge="1" parent="1">
          <mxGeometry width="50" height="50" relative="1" as="geometry">
            <mxPoint x="698.9200000000001" y="1860.21" as="sourcePoint" />
            <mxPoint x="747.9200000000001" y="1859.87" as="targetPoint" />
          </mxGeometry>
        </mxCell>
        <mxCell id="7nq3bFRQU4ekV5BbCSGI-355" value="" style="endArrow=none;html=1;rounded=0;labelBackgroundColor=default;fontColor=default;strokeColor=default;fillColor=default;" edge="1" parent="1">
          <mxGeometry width="50" height="50" relative="1" as="geometry">
            <mxPoint x="649" y="1681.42" as="sourcePoint" />
            <mxPoint x="699" y="1681.42" as="targetPoint" />
          </mxGeometry>
        </mxCell>
        <mxCell id="7nq3bFRQU4ekV5BbCSGI-356" value="" style="endArrow=classic;html=1;rounded=0;labelBackgroundColor=default;fontColor=default;strokeColor=default;fillColor=default;" edge="1" parent="1">
          <mxGeometry width="50" height="50" relative="1" as="geometry">
            <mxPoint x="760.5799999999999" y="1872.21" as="sourcePoint" />
            <mxPoint x="760.5799999999999" y="1901.4200000000003" as="targetPoint" />
          </mxGeometry>
        </mxCell>
        <mxCell id="7nq3bFRQU4ekV5BbCSGI-357" value="" style="edgeStyle=segmentEdgeStyle;endArrow=classic;html=1;rounded=0;labelBackgroundColor=default;fontColor=default;strokeColor=default;fillColor=default;" edge="1" parent="1">
          <mxGeometry width="50" height="50" relative="1" as="geometry">
            <mxPoint x="381" y="1680.42" as="sourcePoint" />
            <mxPoint x="750" y="1913.42" as="targetPoint" />
            <Array as="points">
              <mxPoint x="381" y="1913.42" />
            </Array>
          </mxGeometry>
        </mxCell>
        <mxCell id="7nq3bFRQU4ekV5BbCSGI-365" value="Flattern" style="rounded=0;whiteSpace=wrap;html=1;labelBackgroundColor=default;fontFamily=Times New Roman;fontSize=14;fontColor=default;strokeColor=default;fillColor=#FFFFFF;" vertex="1" parent="1">
          <mxGeometry x="846" y="1780.5" width="90" height="50" as="geometry" />
        </mxCell>
        <mxCell id="7nq3bFRQU4ekV5BbCSGI-366" value="" style="edgeStyle=segmentEdgeStyle;endArrow=classic;html=1;rounded=0;labelBackgroundColor=default;fontFamily=Times New Roman;fontSize=14;fontColor=default;strokeColor=default;fillColor=default;entryX=0.468;entryY=1.01;entryDx=0;entryDy=0;entryPerimeter=0;" edge="1" parent="1" target="7nq3bFRQU4ekV5BbCSGI-365">
          <mxGeometry width="50" height="50" relative="1" as="geometry">
            <mxPoint x="772.9200000000001" y="1913.42" as="sourcePoint" />
            <mxPoint x="822.92" y="1863.42" as="targetPoint" />
          </mxGeometry>
        </mxCell>
        <mxCell id="7nq3bFRQU4ekV5BbCSGI-367" value="Repeat" style="rounded=0;whiteSpace=wrap;html=1;labelBackgroundColor=default;fontFamily=Times New Roman;fontSize=14;fontColor=default;strokeColor=default;fillColor=#FFFFFF;" vertex="1" parent="1">
          <mxGeometry x="846" y="1658.21" width="90" height="50" as="geometry" />
        </mxCell>
        <mxCell id="7nq3bFRQU4ekV5BbCSGI-368" value="" style="endArrow=classic;html=1;rounded=0;labelBackgroundColor=default;fontFamily=Times New Roman;fontSize=14;fontColor=default;strokeColor=default;fillColor=default;exitX=0.5;exitY=0;exitDx=0;exitDy=0;entryX=0.5;entryY=1;entryDx=0;entryDy=0;" edge="1" parent="1" source="7nq3bFRQU4ekV5BbCSGI-365" target="7nq3bFRQU4ekV5BbCSGI-367">
          <mxGeometry width="50" height="50" relative="1" as="geometry">
            <mxPoint x="890" y="1831.42" as="sourcePoint" />
            <mxPoint x="940" y="1781.42" as="targetPoint" />
          </mxGeometry>
        </mxCell>
        <mxCell id="7nq3bFRQU4ekV5BbCSGI-375" value="GANG-Dense" style="rounded=0;whiteSpace=wrap;html=1;labelBackgroundColor=default;fontFamily=Times New Roman;fontSize=14;fontColor=default;strokeColor=default;fillColor=#FFFFFF;" vertex="1" parent="1">
          <mxGeometry x="1138.25" y="1658.21" width="90" height="50" as="geometry" />
        </mxCell>
        <mxCell id="7nq3bFRQU4ekV5BbCSGI-381" value="" style="endArrow=classic;html=1;rounded=0;labelBackgroundColor=default;fontFamily=Times New Roman;fontSize=14;fontColor=default;strokeColor=default;fillColor=default;" edge="1" parent="1">
          <mxGeometry width="50" height="50" relative="1" as="geometry">
            <mxPoint x="1098" y="1682.31" as="sourcePoint" />
            <mxPoint x="1138" y="1682.31" as="targetPoint" />
          </mxGeometry>
        </mxCell>
        <mxCell id="7nq3bFRQU4ekV5BbCSGI-382" value="" style="endArrow=classic;html=1;rounded=0;labelBackgroundColor=default;fontFamily=Times New Roman;fontSize=14;fontColor=default;strokeColor=default;fillColor=default;" edge="1" parent="1">
          <mxGeometry width="50" height="50" relative="1" as="geometry">
            <mxPoint x="1228" y="1682.42" as="sourcePoint" />
            <mxPoint x="1268" y="1682.42" as="targetPoint" />
          </mxGeometry>
        </mxCell>
        <mxCell id="7nq3bFRQU4ekV5BbCSGI-383" value="Output" style="rounded=0;whiteSpace=wrap;html=1;labelBackgroundColor=default;fontFamily=Times New Roman;fontSize=14;fontColor=default;strokeColor=default;fillColor=#FFFFFF;" vertex="1" parent="1">
          <mxGeometry x="1269" y="1658.21" width="90" height="50" as="geometry" />
        </mxCell>
        <mxCell id="7nq3bFRQU4ekV5BbCSGI-385" value="" style="endArrow=classic;html=1;strokeColor=default;labelBackgroundColor=default;fontColor=default;" edge="1" parent="1">
          <mxGeometry width="50" height="50" relative="1" as="geometry">
            <mxPoint x="200.00000000000023" y="1682.22" as="sourcePoint" />
            <mxPoint x="239.99999999999955" y="1682.22" as="targetPoint" />
          </mxGeometry>
        </mxCell>
        <mxCell id="7nq3bFRQU4ekV5BbCSGI-387" value="Bi-LSTM" style="rounded=1;whiteSpace=wrap;html=1;labelBackgroundColor=default;fontFamily=Times New Roman;fontSize=14;fontColor=default;strokeColor=default;fillColor=#FFFFFF;" vertex="1" parent="1">
          <mxGeometry x="978" y="1651.21" width="120" height="60" as="geometry" />
        </mxCell>
        <mxCell id="7nq3bFRQU4ekV5BbCSGI-388" value="" style="endArrow=classic;html=1;rounded=0;labelBackgroundColor=default;fontFamily=Times New Roman;fontSize=14;fontColor=default;strokeColor=default;fillColor=default;" edge="1" parent="1">
          <mxGeometry width="50" height="50" relative="1" as="geometry">
            <mxPoint x="936" y="1682.04" as="sourcePoint" />
            <mxPoint x="976" y="1682.04" as="targetPoint" />
          </mxGeometry>
        </mxCell>
      </root>
    </mxGraphModel>
  </diagram>
</mxfile>
